<mxfile host="app.diagrams.net" modified="2020-05-15T10:29:55.744Z" agent="5.0 (Windows NT 10.0; Win64; x64) AppleWebKit/537.36 (KHTML, like Gecko) Chrome/81.0.4044.138 Safari/537.36" etag="YJe1KQw5Fg5dKBzYXkSp" version="13.1.1" type="github">
  <diagram id="chrrJLv0rdY7XZW04AwV" name="Page-1">
    <mxGraphModel dx="1038" dy="556" grid="1" gridSize="10" guides="1" tooltips="1" connect="1" arrows="1" fold="1" page="1" pageScale="1" pageWidth="827" pageHeight="1169" math="0" shadow="0">
      <root>
        <mxCell id="0" />
        <mxCell id="1" parent="0" />
        <mxCell id="E40MY-DtM4U4eI0EadJ_-7" value="Admin" style="shape=umlActor;verticalLabelPosition=bottom;labelBackgroundColor=#ffffff;verticalAlign=top;html=1;" vertex="1" parent="1">
          <mxGeometry x="950" y="370" width="50" height="90" as="geometry" />
        </mxCell>
        <mxCell id="E40MY-DtM4U4eI0EadJ_-8" value="Distribution Sub System" style="shape=umlFrame;whiteSpace=wrap;html=1;width=120;height=50;" vertex="1" parent="1">
          <mxGeometry x="180" y="270" width="720" height="480" as="geometry" />
        </mxCell>
        <object label="User" id="E40MY-DtM4U4eI0EadJ_-11">
          <mxCell style="shape=umlActor;verticalLabelPosition=bottom;labelBackgroundColor=#ffffff;verticalAlign=top;html=1;" vertex="1" parent="1">
            <mxGeometry x="30" y="390" width="50" height="90" as="geometry" />
          </mxCell>
        </object>
        <mxCell id="E40MY-DtM4U4eI0EadJ_-12" value="&lt;font style=&quot;font-size: 18px&quot;&gt;log in&lt;/font&gt;" style="ellipse;whiteSpace=wrap;html=1;" vertex="1" parent="1">
          <mxGeometry x="360" y="330" width="140" height="70" as="geometry" />
        </mxCell>
        <mxCell id="E40MY-DtM4U4eI0EadJ_-17" value="&lt;font style=&quot;font-size: 14px&quot;&gt;Purchase Goods&lt;/font&gt;" style="ellipse;whiteSpace=wrap;html=1;" vertex="1" parent="1">
          <mxGeometry x="360" y="430" width="140" height="70" as="geometry" />
        </mxCell>
        <mxCell id="E40MY-DtM4U4eI0EadJ_-18" value="&lt;font style=&quot;font-size: 16px;&quot;&gt;set distribution options&lt;br style=&quot;font-size: 16px;&quot;&gt;&lt;/font&gt;" style="ellipse;whiteSpace=wrap;html=1;fontSize=16;" vertex="1" parent="1">
          <mxGeometry x="540" y="430" width="140" height="70" as="geometry" />
        </mxCell>
        <mxCell id="E40MY-DtM4U4eI0EadJ_-33" value="&lt;font style=&quot;font-size: 18px&quot;&gt;start distribution&lt;br&gt;&lt;/font&gt;" style="ellipse;whiteSpace=wrap;html=1;" vertex="1" parent="1">
          <mxGeometry x="540" y="540" width="140" height="70" as="geometry" />
        </mxCell>
        <mxCell id="E40MY-DtM4U4eI0EadJ_-41" value="&lt;span style=&quot;font-size: 14px&quot;&gt;Get Distribution&lt;br&gt;&lt;/span&gt;" style="ellipse;whiteSpace=wrap;html=1;" vertex="1" parent="1">
          <mxGeometry x="360" y="540" width="140" height="70" as="geometry" />
        </mxCell>
        <mxCell id="E40MY-DtM4U4eI0EadJ_-44" value="" style="endArrow=classic;html=1;fontSize=16;" edge="1" parent="1" source="E40MY-DtM4U4eI0EadJ_-11" target="E40MY-DtM4U4eI0EadJ_-12">
          <mxGeometry width="50" height="50" relative="1" as="geometry">
            <mxPoint x="520" y="380" as="sourcePoint" />
            <mxPoint x="570" y="330" as="targetPoint" />
          </mxGeometry>
        </mxCell>
        <mxCell id="E40MY-DtM4U4eI0EadJ_-46" value="" style="endArrow=classic;html=1;fontSize=16;" edge="1" parent="1" target="E40MY-DtM4U4eI0EadJ_-17">
          <mxGeometry width="50" height="50" relative="1" as="geometry">
            <mxPoint x="80" y="440" as="sourcePoint" />
            <mxPoint x="394.42109396908245" y="500.00139579243796" as="targetPoint" />
          </mxGeometry>
        </mxCell>
        <mxCell id="E40MY-DtM4U4eI0EadJ_-47" value="" style="endArrow=classic;html=1;fontSize=16;" edge="1" parent="1" source="E40MY-DtM4U4eI0EadJ_-11" target="E40MY-DtM4U4eI0EadJ_-41">
          <mxGeometry width="50" height="50" relative="1" as="geometry">
            <mxPoint x="100" y="610.0033333333332" as="sourcePoint" />
            <mxPoint x="384.42109396908245" y="556.9113957924379" as="targetPoint" />
          </mxGeometry>
        </mxCell>
        <mxCell id="E40MY-DtM4U4eI0EadJ_-48" value="" style="endArrow=classic;html=1;fontSize=16;" edge="1" parent="1" source="E40MY-DtM4U4eI0EadJ_-7" target="E40MY-DtM4U4eI0EadJ_-33">
          <mxGeometry width="50" height="50" relative="1" as="geometry">
            <mxPoint x="520" y="480" as="sourcePoint" />
            <mxPoint x="570" y="430" as="targetPoint" />
          </mxGeometry>
        </mxCell>
        <mxCell id="E40MY-DtM4U4eI0EadJ_-49" value="" style="endArrow=classic;html=1;fontSize=16;" edge="1" parent="1" source="E40MY-DtM4U4eI0EadJ_-7" target="E40MY-DtM4U4eI0EadJ_-18">
          <mxGeometry width="50" height="50" relative="1" as="geometry">
            <mxPoint x="520" y="480" as="sourcePoint" />
            <mxPoint x="570" y="430" as="targetPoint" />
          </mxGeometry>
        </mxCell>
        <mxCell id="E40MY-DtM4U4eI0EadJ_-50" value="" style="endArrow=classic;html=1;fontSize=16;" edge="1" parent="1" source="E40MY-DtM4U4eI0EadJ_-7" target="E40MY-DtM4U4eI0EadJ_-12">
          <mxGeometry width="50" height="50" relative="1" as="geometry">
            <mxPoint x="932.49" y="370.0046575342465" as="sourcePoint" />
            <mxPoint x="660.0020800785851" y="407.33176985224856" as="targetPoint" />
            <Array as="points">
              <mxPoint x="840" y="340" />
            </Array>
          </mxGeometry>
        </mxCell>
      </root>
    </mxGraphModel>
  </diagram>
</mxfile>
